<svg width="771" height="376" viewBox="0 0 771 376" fill="none" xmlns="http://www.w3.org/2000/svg">
<path d="M60.5162 17.6929C53.0728 19.1219 48.1861 26.2946 49.6085 33.7033L59.9156 87.3895C61.338 94.7982 68.5335 99.6512 75.9769 98.2222L165.874 80.9631C173.317 79.534 178.204 72.3613 176.781 64.9526L166.474 11.2665C165.052 3.85776 157.856 -0.995283 150.413 0.433771L60.5162 17.6929ZM62.2341 26.6406L152.131 9.38147C154.607 8.90598 157.011 10.5273 157.485 12.9924L157.914 15.2293L113.571 51.2875L59.0276 34.2143L58.5982 31.9774C58.1249 29.5123 59.7574 27.1161 62.2341 26.6406ZM59.269 35.4715L93.0001 52.6253L69.8434 87.5152L100.183 55.885L115.638 62.0516L127.714 50.5994L167.606 68.746L133.175 44.9122L158.155 16.4864L167.792 66.6786C167.899 67.3722 167.835 68.0817 167.606 68.746C167.144 70.3424 165.904 71.6797 164.156 72.0154L74.2591 89.2745C72.5106 89.6102 70.865 88.8313 69.8434 87.5152C69.3853 86.9844 69.0629 86.346 68.9053 85.6636L59.269 35.4715Z" fill="#4D8CBF"/>
<rect x="14" y="88" width="757" height="288" rx="52" fill="#4D8CBF"/>
<rect y="75" width="757" height="288" rx="52" fill="#E15C12"/>
<rect x="602" y="245" width="63" height="49" fill="#E15C12"/>
</svg>
