<svg width="8" height="16" viewBox="0 0 8 16" fill="none" xmlns="http://www.w3.org/2000/svg">
<path d="M6.81435 4.90414L6.81788 7.17686L0.0849302 7.18731L0.0814026 4.91459L6.81435 4.90414ZM1.63953 15.8213L1.62137 4.12385C1.62014 3.33313 1.77301 2.67711 2.07996 2.1558C2.39166 1.63448 2.81718 1.2432 3.35655 0.981943C3.89592 0.720689 4.50888 0.589529 5.19543 0.588463C5.65945 0.587743 6.08327 0.622597 6.4669 0.693025C6.85527 0.763445 7.1442 0.826917 7.33368 0.883441L6.79743 3.157C6.679 3.11931 6.53217 3.08402 6.35693 3.05115C6.18642 3.01827 6.01121 3.00197 5.83128 3.00225C5.38621 3.00294 5.07624 3.10759 4.90137 3.3162C4.7265 3.52007 4.63935 3.80666 4.63992 4.17598L4.65799 15.8166L1.63953 15.8213Z" fill="white"/>
</svg>
