<svg width="27" height="22" viewBox="0 0 27 22" fill="none" xmlns="http://www.w3.org/2000/svg">
<ellipse cx="13.5" cy="11" rx="13.5" ry="11" fill="#FB6008"/>
<path d="M20.8794 7.55562C21.6126 7.47849 22.3278 7.30421 23 7.03887C22.5079 7.69576 21.8842 8.27107 21.1584 8.73765C21.1648 8.8774 21.1681 9.02008 21.1681 9.16275C21.1681 13.4999 17.4541 18.5 10.661 18.5C8.57638 18.5 6.63463 17.9563 5 17.0268C5.28875 17.0567 5.58312 17.0719 5.88125 17.0719C7.61075 17.0719 9.20375 16.5471 10.4675 15.6663C8.85087 15.641 7.48813 14.6913 7.01787 13.3881C7.24686 13.4272 7.47973 13.4468 7.71312 13.4466C8.04214 13.4476 8.3697 13.4087 8.68625 13.3309C6.99575 13.0306 5.72263 11.7036 5.72263 10.113L5.72263 10.0727C6.23379 10.3249 6.80806 10.4654 7.39587 10.4822C6.40513 9.89335 5.75337 8.88877 5.75338 7.75062C5.75202 7.17187 5.92414 6.60274 6.25288 6.09898C8.07538 8.087 10.796 9.39187 13.8654 9.52935C13.802 9.28885 13.7701 9.03892 13.7701 8.78185C13.7701 6.96932 15.4235 5.5 17.4616 5.5C18.5247 5.5 19.4851 5.89812 20.1567 6.53577C20.9863 6.391 21.7803 6.12187 22.5031 5.7405C22.2325 6.49559 21.6557 7.14032 20.8794 7.55562Z" fill="white"/>
</svg>
