<svg width="24" height="22" viewBox="0 0 24 22" fill="none" xmlns="http://www.w3.org/2000/svg">
<ellipse cx="12" cy="11" rx="12" ry="11" fill="#FB6008"/>
<path d="M16.0739 9.09091L16.0739 11.3636L9.34091 11.3636L9.34091 9.09091L16.0739 9.09091ZM10.8821 20L10.8821 8.30256C10.8821 7.51184 11.036 6.85606 11.3437 6.33523C11.6562 5.81439 12.0824 5.42377 12.6222 5.16335C13.1619 4.90293 13.7751 4.77273 14.4616 4.77273C14.9257 4.77273 15.3494 4.80824 15.733 4.87926C16.1212 4.95028 16.41 5.0142 16.5994 5.07102L16.0597 7.34375C15.9413 7.30587 15.7945 7.27036 15.6193 7.23722C15.4489 7.20407 15.2737 7.1875 15.0937 7.1875C14.6487 7.1875 14.3385 7.29167 14.1634 7.5C13.9882 7.7036 13.9006 7.99006 13.9006 8.35938L13.9006 20L10.8821 20Z" fill="white"/>
</svg>
