<svg width="24" height="22" viewBox="0 0 24 22" fill="none" xmlns="http://www.w3.org/2000/svg">
<path d="M22.9884 10.676C22.9969 16.157 18.1229 20.6836 12.004 20.6931C5.88506 20.7026 0.996972 16.1912 0.988465 10.7101C0.979957 5.22915 5.85402 0.702585 11.9729 0.693087C18.0918 0.68359 22.9799 5.195 22.9884 10.676Z" fill="#D9D9D9" fill-opacity="0.01"/>
<path d="M22.9884 10.676C22.9969 16.157 18.1229 20.6836 12.004 20.6931C5.88506 20.7026 0.996972 16.1912 0.988465 10.7101C0.979957 5.22915 5.85402 0.702585 11.9729 0.693087C18.0918 0.68359 22.9799 5.195 22.9884 10.676Z" fill="#D9D9D9" fill-opacity="0.01"/>
<path d="M22.9884 10.676C22.9969 16.157 18.1229 20.6836 12.004 20.6931C5.88506 20.7026 0.996972 16.1912 0.988465 10.7101C0.979957 5.22915 5.85402 0.702585 11.9729 0.693087C18.0918 0.68359 22.9799 5.195 22.9884 10.676Z" fill="#D9D9D9" fill-opacity="0.01"/>
<path d="M22.9884 10.676C22.9969 16.157 18.1229 20.6836 12.004 20.6931C5.88506 20.7026 0.996972 16.1912 0.988465 10.7101C0.979957 5.22915 5.85402 0.702585 11.9729 0.693087C18.0918 0.68359 22.9799 5.195 22.9884 10.676Z" fill="#D9D9D9" fill-opacity="0.01"/>
<path d="M22.9884 10.676C22.9969 16.157 18.1229 20.6836 12.004 20.6931C5.88506 20.7026 0.996972 16.1912 0.988465 10.7101C0.979957 5.22915 5.85402 0.702585 11.9729 0.693087C18.0918 0.68359 22.9799 5.195 22.9884 10.676Z" stroke="#FB6008"/>
<mask id="mask0_0_1" style="mask-type:alpha" maskUnits="userSpaceOnUse" x="3" y="3" width="18" height="17">
<rect x="3.47522" y="3.2063" width="17" height="16" transform="rotate(-0.0889304 3.47522 3.2063)" fill="#D9D9D9"/>
</mask>
<g mask="url(#mask0_0_1)">
<path d="M11.998 17.8599C10.7466 17.8619 9.72511 17.6773 8.93357 17.3063C8.14202 16.9354 7.74578 16.4554 7.74487 15.8665C7.74427 15.4776 7.91492 15.1385 8.25683 14.8491C8.59875 14.5596 9.07061 14.3311 9.67244 14.1635L10.0817 15.4296C9.88109 15.4854 9.69821 15.5552 9.53306 15.6387C9.36791 15.7223 9.25588 15.7975 9.19695 15.8643C9.3507 16.0418 9.70511 16.1968 10.2602 16.3293C10.8152 16.4618 11.3938 16.5275 11.9959 16.5266C12.598 16.5257 13.1793 16.4581 13.7399 16.3239C14.3004 16.1897 14.6573 16.0336 14.8105 15.8556C14.7514 15.789 14.6391 15.7142 14.4737 15.6311C14.3083 15.548 14.1252 15.4788 13.9244 15.4236L14.3297 14.1563C14.9321 14.322 15.4017 14.5491 15.7386 14.8374C16.0755 15.1258 16.2443 15.4644 16.2449 15.8533C16.2458 16.4422 15.851 16.9234 15.0606 17.2968C14.2702 17.6703 13.2494 17.858 11.998 17.8599ZM11.9911 13.4099C12.203 13.0429 12.4268 12.7065 12.6624 12.4006C12.8981 12.0946 13.1278 11.8026 13.3517 11.5245C13.7877 10.9905 14.1352 10.5094 14.3942 10.0812C14.6533 9.65302 14.7823 9.12226 14.7813 8.48893C14.7802 7.75559 14.5077 7.13379 13.9639 6.62353C13.42 6.11326 12.7585 5.85873 11.9793 5.85994C11.2002 5.86115 10.5395 6.11773 9.9972 6.62968C9.45494 7.14164 9.18438 7.76428 9.18552 8.49761C9.1865 9.13094 9.31719 9.6613 9.57757 10.0887C9.83796 10.516 10.187 10.9961 10.6246 11.5287C10.8493 11.8061 11.08 12.0975 11.3166 12.4026C11.5532 12.7078 11.778 13.0436 11.9911 13.4099ZM11.9949 15.8599C11.865 15.8601 11.7469 15.8242 11.6405 15.7521C11.5342 15.6801 11.4573 15.583 11.4099 15.4608C11.1371 14.6724 10.7937 14.0118 10.3797 13.4791C9.96569 12.9464 9.56351 12.4359 9.17316 11.9476C8.79463 11.4593 8.46624 10.9543 8.188 10.4325C7.90976 9.9107 7.77004 9.26648 7.76885 8.49981C7.76713 7.3887 8.17296 6.44918 8.98635 5.68125C9.79975 4.91332 10.7967 4.52844 11.9773 4.52661C13.1578 4.52477 14.156 4.90656 14.9718 5.67196C15.7875 6.43736 16.1963 7.37562 16.198 8.48673C16.1992 9.25339 16.0644 9.89805 15.7937 10.4207C15.523 10.9433 15.1932 11.4494 14.8044 11.9389C14.4274 12.4284 14.0297 12.9401 13.6115 13.4741C13.1932 14.0081 12.8489 14.6697 12.5786 15.459C12.5316 15.5813 12.455 15.6787 12.3489 15.751C12.2427 15.8234 12.1247 15.8597 11.9949 15.8599ZM11.9856 9.90993C12.3988 9.90929 12.7528 9.76985 13.0475 9.49162C13.3422 9.21338 13.4892 8.87982 13.4886 8.49093C13.488 8.10204 13.3399 7.76894 13.0444 7.49162C12.7488 7.2143 12.3944 7.07596 11.9812 7.0766C11.568 7.07725 11.2141 7.21668 10.9194 7.49492C10.6247 7.77315 10.4776 8.10672 10.4782 8.49561C10.4788 8.88449 10.6269 9.2176 10.9225 9.49492C11.2181 9.77224 11.5724 9.91057 11.9856 9.90993Z" fill="#FB6008"/>
</g>
</svg>
