<svg width="24" height="22" viewBox="0 0 24 22" fill="none" xmlns="http://www.w3.org/2000/svg">
<path d="M23.0706 10.676C23.0791 16.157 18.2051 20.6836 12.0862 20.6931C5.96725 20.7026 1.07916 16.1912 1.07065 10.7101C1.06214 5.22915 5.93621 0.702585 12.0551 0.693087C18.174 0.68359 23.0621 5.195 23.0706 10.676Z" fill="#D9D9D9" fill-opacity="0.01"/>
<path d="M23.0706 10.676C23.0791 16.157 18.2051 20.6836 12.0862 20.6931C5.96725 20.7026 1.07916 16.1912 1.07065 10.7101C1.06214 5.22915 5.93621 0.702585 12.0551 0.693087C18.174 0.68359 23.0621 5.195 23.0706 10.676Z" fill="#D9D9D9" fill-opacity="0.01"/>
<path d="M23.0706 10.676C23.0791 16.157 18.2051 20.6836 12.0862 20.6931C5.96725 20.7026 1.07916 16.1912 1.07065 10.7101C1.06214 5.22915 5.93621 0.702585 12.0551 0.693087C18.174 0.68359 23.0621 5.195 23.0706 10.676Z" fill="#D9D9D9" fill-opacity="0.01"/>
<path d="M23.0706 10.676C23.0791 16.157 18.2051 20.6836 12.0862 20.6931C5.96725 20.7026 1.07916 16.1912 1.07065 10.7101C1.06214 5.22915 5.93621 0.702585 12.0551 0.693087C18.174 0.68359 23.0621 5.195 23.0706 10.676Z" fill="#D9D9D9" fill-opacity="0.01"/>
<path d="M23.0706 10.676C23.0791 16.157 18.2051 20.6836 12.0862 20.6931C5.96725 20.7026 1.07916 16.1912 1.07065 10.7101C1.06214 5.22915 5.93621 0.702585 12.0551 0.693087C18.174 0.68359 23.0621 5.195 23.0706 10.676Z" stroke="#FB6008"/>
<mask id="mask0_0_1" style="mask-type:alpha" maskUnits="userSpaceOnUse" x="3" y="4" width="16" height="15">
<rect x="3.56058" y="4.2063" width="15" height="14" transform="rotate(-0.0889304 3.56058 4.2063)" fill="#D9D9D9"/>
</mask>
<g mask="url(#mask0_0_1)">
<path d="M15.4464 11.1878C15.4447 10.0503 15.0187 9.08607 14.1685 8.29503C13.3183 7.50399 12.2838 7.10941 11.0651 7.1113L11.0633 5.94464C11.8445 5.94343 12.5765 6.08083 13.2592 6.35686C13.942 6.63288 14.5363 7.00626 15.0422 7.47701C15.5482 7.94775 15.9501 8.50129 16.2479 9.13764C16.5458 9.77398 16.6953 10.4567 16.6964 11.1859L15.4464 11.1878ZM12.9464 11.1917C12.9457 10.7056 12.7627 10.2927 12.3976 9.95299C12.0325 9.61328 11.5896 9.44383 11.0687 9.44463L11.0669 8.27797C11.9315 8.27663 12.6689 8.55986 13.2792 9.12766C13.8894 9.69546 14.1952 10.3828 14.1964 11.1898L12.9464 11.1917ZM16.0483 16.4369C14.7462 16.4389 13.4594 16.176 12.1877 15.6481C10.9161 15.1202 9.75866 14.371 8.71548 13.4004C7.67231 12.4298 6.86595 11.3519 6.2964 10.1666C5.72685 8.9814 5.44113 7.78114 5.43924 6.56587C5.43897 6.39087 5.50125 6.24494 5.62606 6.12808C5.75088 6.01122 5.90704 5.95264 6.09454 5.95235L8.62579 5.94842C8.77162 5.9482 8.9019 5.99417 9.01663 6.08636C9.13136 6.17854 9.19923 6.28781 9.22026 6.41417L9.62968 8.4552C9.65076 8.61072 9.64575 8.74198 9.61467 8.84897C9.58358 8.95597 9.52644 9.04842 9.44322 9.12632L7.92982 10.5578C8.13871 10.9172 8.38664 11.2644 8.67362 11.5994C8.9606 11.9344 9.27621 12.2571 9.62044 12.5677C9.94382 12.8686 10.2828 13.1476 10.6374 13.4047C10.9919 13.6618 11.3673 13.897 11.7635 14.1102L13.2301 12.7371C13.3237 12.6495 13.446 12.5837 13.597 12.5397C13.7479 12.4957 13.8964 12.4833 14.0422 12.5025L16.1991 12.9075C16.345 12.9462 16.4649 13.0165 16.5588 13.1184C16.6527 13.2203 16.6998 13.3345 16.7 13.4609L16.7036 15.8234C16.7039 15.9984 16.6416 16.1443 16.5168 16.2612C16.392 16.378 16.2358 16.4366 16.0483 16.4369ZM7.33435 9.45043L8.3641 8.48633L8.09635 7.11591L6.70573 7.11807C6.75843 7.5166 6.83196 7.91024 6.92631 8.29898C7.02066 8.68772 7.15668 9.07154 7.33435 9.45043ZM12.9362 14.6626C13.3427 14.8272 13.757 14.9578 14.179 15.0544C14.601 15.151 15.0256 15.2135 15.4527 15.242L15.4507 13.9587L13.9816 13.6839L12.9362 14.6626Z" fill="#FB6008"/>
</g>
</svg>
