<svg width="26" height="25" viewBox="0 0 26 25" fill="none" xmlns="http://www.w3.org/2000/svg">
<mask id="mask0_0_1" style="mask-type:alpha" maskUnits="userSpaceOnUse" x="4" y="4" width="18" height="18">
<rect x="4.63046" y="4.20166" width="17" height="17" transform="rotate(-0.0889304 4.63046 4.20166)" fill="#D9D9D9"/>
</mask>
<g mask="url(#mask0_0_1)">
<path d="M7.48578 18.3638C7.0962 18.3644 6.76248 18.2262 6.48462 17.9492C6.20676 17.6722 6.06753 17.339 6.06692 16.9494L6.05373 8.44938C6.05312 8.0598 6.19132 7.72608 6.46832 7.44821C6.74532 7.17035 7.07861 7.03112 7.46819 7.03052L18.8015 7.01293C19.1911 7.01232 19.5248 7.15052 19.8027 7.42752C20.0805 7.70452 20.2198 8.03781 20.2204 8.42739L20.2336 16.9274C20.2342 17.317 20.096 17.6507 19.819 17.9285C19.542 18.2064 19.2087 18.3456 18.8191 18.3462L7.48578 18.3638ZM13.1447 13.3967L7.47259 9.86385L7.48359 16.9472L18.8169 16.9296L18.8059 9.84626L13.1447 13.3967ZM13.1426 11.98L18.8037 8.42959L7.47039 8.44718L13.1426 11.98ZM7.47259 9.86385L7.47039 8.44718L7.48359 16.9472L7.47259 9.86385Z" fill="#FB6008"/>
</g>
<path d="M25.1427 12.1697C25.1526 18.5019 19.8074 23.678 13.1606 23.6883C6.51376 23.6987 1.1526 18.5392 1.14277 12.207C1.13294 5.87475 6.47806 0.698678 13.1249 0.688361C19.7717 0.678045 25.1329 5.8375 25.1427 12.1697Z" fill="#D9D9D9" fill-opacity="0.01" stroke="#FB6008"/>
</svg>
