<svg width="28" height="29" viewBox="0 0 28 29" fill="none" xmlns="http://www.w3.org/2000/svg">
<path d="M14 0C12.1615 0 10.341 0.381714 8.64243 1.12335C6.94387 1.86498 5.40053 2.95201 4.1005 4.32237C1.475 7.08994 0 10.8436 0 14.7575C0 21.2803 4.018 26.8144 9.576 28.7771C10.276 28.8952 10.5 28.4377 10.5 28.0393V25.5452C6.622 26.4307 5.796 23.5677 5.796 23.5677C5.152 21.8559 4.242 21.3984 4.242 21.3984C2.968 20.4834 4.34 20.5129 4.34 20.5129C5.74 20.6162 6.482 22.033 6.482 22.033C7.7 24.2761 9.758 23.612 10.556 23.2578C10.682 22.2986 11.046 21.6493 11.438 21.2803C8.33 20.9114 5.068 19.6422 5.068 14.0196C5.068 12.3815 5.6 11.0681 6.51 10.0203C6.37 9.65141 5.88 8.11663 6.65 6.12437C6.65 6.12437 7.826 5.72591 10.5 7.62963C11.606 7.30497 12.81 7.14263 14 7.14263C15.19 7.14263 16.394 7.30497 17.5 7.62963C20.174 5.72591 21.35 6.12437 21.35 6.12437C22.12 8.11663 21.63 9.65141 21.49 10.0203C22.4 11.0681 22.932 12.3815 22.932 14.0196C22.932 19.657 19.656 20.8966 16.534 21.2656C17.038 21.7231 17.5 22.6233 17.5 23.9957V28.0393C17.5 28.4377 17.724 28.91 18.438 28.7771C23.996 26.7996 28 21.2803 28 14.7575C28 12.8195 27.6379 10.9005 26.9343 9.11005C26.2307 7.31959 25.1995 5.69274 23.8995 4.32237C22.5995 2.95201 21.0561 1.86498 19.3576 1.12335C17.659 0.381714 15.8385 0 14 0Z" fill="#E15C12"/>
</svg>
