<svg width="19" height="19" viewBox="0 0 19 19" fill="none" xmlns="http://www.w3.org/2000/svg">
<path d="M0.318026 18.8312L0.297708 5.74033L3.92839 5.73469L3.9487 18.8256L0.318026 18.8312ZM2.11895 4.05C1.57918 4.05083 1.11583 3.87258 0.728914 3.51522C0.347668 3.15218 0.156653 2.71781 0.155868 2.21213C0.155092 1.71213 0.344766 1.28286 0.724892 0.924317C1.11069 0.56008 1.57348 0.377543 2.11325 0.376706C2.65302 0.375868 3.11353 0.556972 3.49478 0.920017C3.88169 1.27737 4.07554 1.70605 4.07632 2.20605C4.0771 2.71173 3.8846 3.14669 3.4988 3.51092C3.11867 3.86947 2.65872 4.04916 2.11895 4.05ZM10.476 11.2473L10.4878 18.8154L6.85708 18.8211L6.83676 5.73018L10.297 5.72481L10.3006 8.03446L10.454 8.03422C10.7426 7.27241 11.2274 6.66939 11.9086 6.22515C12.5897 5.77522 13.416 5.54951 14.3876 5.548C15.2967 5.54659 16.0896 5.74422 16.7664 6.1409C17.4431 6.53758 17.9696 7.10494 18.3457 7.843C18.7219 8.57537 18.9107 9.45008 18.9123 10.4671L18.9252 18.8023L15.2946 18.808L15.2826 11.1205C15.2871 10.3193 15.0816 9.69466 14.6661 9.24644C14.2506 8.79254 13.6792 8.56615 12.952 8.56728C12.4633 8.56804 12.0317 8.67382 11.657 8.88463C11.288 9.09543 10.9987 9.4027 10.7891 9.80643C10.5852 10.2045 10.4808 10.6848 10.476 11.2473Z" fill="white"/>
</svg>
