<svg width="24" height="24" viewBox="0 0 24 24" fill="none" xmlns="http://www.w3.org/2000/svg">
<rect width="24" height="24" fill="#D9D9D9" fill-opacity="0.01"/>
<path d="M15.729 3.88402C17.163 2.44402 19.261 2.41402 20.422 3.58002C21.586 4.74802 21.555 6.86002 20.119 8.30002L17.696 10.733C17.5596 10.8747 17.4842 11.0642 17.4862 11.2609C17.4882 11.4575 17.5673 11.6455 17.7066 11.7844C17.8459 11.9233 18.0341 12.0019 18.2307 12.0033C18.4274 12.0047 18.6168 11.9288 18.758 11.792L21.182 9.35902C23.093 7.44002 23.333 4.37702 21.485 2.52102C19.635 0.664016 16.578 0.906016 14.665 2.82502L9.81901 7.69202C7.90801 9.61102 7.66801 12.674 9.51601 14.529C9.58503 14.6008 9.66765 14.6581 9.75906 14.6976C9.85046 14.7371 9.94882 14.758 10.0484 14.7591C10.148 14.7602 10.2468 14.7415 10.339 14.704C10.4313 14.6665 10.5151 14.611 10.5857 14.5407C10.6563 14.4705 10.7122 14.3869 10.7501 14.2948C10.788 14.2028 10.8072 14.1041 10.8066 14.0045C10.806 13.9049 10.7855 13.8064 10.7465 13.7149C10.7074 13.6233 10.6505 13.5404 10.579 13.471C9.41501 12.303 9.44701 10.191 10.882 8.75102L15.729 3.88402Z" fill="black"/>
<path d="M14.485 9.46998C14.3444 9.32902 14.1536 9.24967 13.9546 9.24939C13.7555 9.24911 13.5645 9.32792 13.4235 9.46848C13.2825 9.60905 13.2032 9.79985 13.2029 9.99892C13.2026 10.198 13.2814 10.389 13.422 10.53C14.586 11.698 14.555 13.809 13.119 15.25L8.272 20.116C6.837 21.556 4.739 21.586 3.578 20.42C2.414 19.252 2.446 17.14 3.881 15.7L6.305 13.267C6.37454 13.1972 6.42964 13.1144 6.46717 13.0233C6.50471 12.9322 6.52393 12.8346 6.52374 12.7361C6.52356 12.6375 6.50397 12.54 6.46609 12.4491C6.42822 12.3581 6.3728 12.2755 6.303 12.206C6.2332 12.1364 6.15039 12.0813 6.0593 12.0438C5.9682 12.0063 5.87061 11.9871 5.77209 11.9872C5.67356 11.9874 5.57604 12.007 5.48509 12.0449C5.39414 12.0828 5.31154 12.1382 5.242 12.208L2.818 14.641C0.907001 16.561 0.667001 19.623 2.515 21.479C4.365 23.337 7.422 23.094 9.335 21.175L14.182 16.308C16.093 14.39 16.333 11.325 14.485 9.46998Z" fill="black"/>
</svg>
