<svg width="30" height="29" viewBox="0 0 30 29" fill="none" xmlns="http://www.w3.org/2000/svg">
<ellipse cx="15" cy="14.5" rx="15" ry="14.5" fill="#FB6008"/>
<mask id="mask0_0_1" style="mask-type:alpha" maskUnits="userSpaceOnUse" x="1" y="2" width="27" height="23">
<rect x="1" y="2" width="27" height="23" fill="#D9D9D9"/>
</mask>
<g mask="url(#mask0_0_1)">
<path d="M14.5 23.0832C12.5125 23.0832 10.8906 22.8156 9.63438 22.2806C8.37813 21.7455 7.75 21.0547 7.75 20.2082C7.75 19.6491 8.02188 19.162 8.56563 18.7467C9.10938 18.3314 9.85938 18.004 10.8156 17.7644L11.4625 19.5853C11.1437 19.6651 10.8531 19.7649 10.5906 19.8847C10.3281 20.0045 10.15 20.1123 10.0562 20.2082C10.3 20.4637 10.8625 20.6873 11.7437 20.879C12.625 21.0707 13.5437 21.1665 14.5 21.1665C15.4563 21.1665 16.3797 21.0707 17.2703 20.879C18.1609 20.6873 18.7281 20.4637 18.9719 20.2082C18.8781 20.1123 18.7 20.0045 18.4375 19.8847C18.175 19.7649 17.8844 19.6651 17.5656 19.5853L18.2125 17.7644C19.1687 18.004 19.9141 18.3314 20.4484 18.7467C20.9828 19.162 21.25 19.6491 21.25 20.2082C21.25 21.0547 20.6219 21.7455 19.3656 22.2806C18.1094 22.8156 16.4875 23.0832 14.5 23.0832ZM14.5 16.6863C14.8375 16.1592 15.1938 15.6761 15.5688 15.2368C15.9438 14.7976 16.3094 14.3783 16.6656 13.979C17.3594 13.2123 17.9125 12.5215 18.325 11.9066C18.7375 11.2917 18.9437 10.529 18.9437 9.61859C18.9437 8.56442 18.5125 7.66998 17.65 6.93525C16.7875 6.20053 15.7375 5.83317 14.5 5.83317C13.2625 5.83317 12.2125 6.20053 11.35 6.93525C10.4875 7.66998 10.0562 8.56442 10.0562 9.61859C10.0562 10.529 10.2625 11.2917 10.675 11.9066C11.0875 12.5215 11.6406 13.2123 12.3344 13.979C12.6906 14.3783 13.0563 14.7976 13.4313 15.2368C13.8063 15.6761 14.1625 16.1592 14.5 16.6863ZM14.5 20.2082C14.2937 20.2082 14.1062 20.1563 13.9375 20.0524C13.7688 19.9486 13.6469 19.8089 13.5719 19.6332C13.1406 18.4991 12.5969 17.5488 11.9406 16.7821C11.2844 16.0155 10.6469 15.2807 10.0281 14.578C9.42813 13.8752 8.90781 13.1484 8.46719 12.3978C8.02656 11.6471 7.80625 10.7207 7.80625 9.61859C7.80625 8.02137 8.45312 6.67171 9.74687 5.56963C11.0406 4.46755 12.625 3.9165 14.5 3.9165C16.375 3.9165 17.9594 4.46755 19.2531 5.56963C20.5469 6.67171 21.1937 8.02137 21.1937 9.61859C21.1937 10.7207 20.9781 11.6471 20.5469 12.3978C20.1156 13.1484 19.5906 13.8752 18.9719 14.578C18.3719 15.2807 17.7391 16.0155 17.0734 16.7821C16.4078 17.5488 15.8594 18.4991 15.4281 19.6332C15.3531 19.8089 15.2312 19.9486 15.0625 20.0524C14.8938 20.1563 14.7063 20.2082 14.5 20.2082ZM14.5 11.655C15.1562 11.655 15.7188 11.4554 16.1875 11.0561C16.6562 10.6568 16.8906 10.1776 16.8906 9.61859C16.8906 9.05956 16.6562 8.58039 16.1875 8.18109C15.7188 7.78178 15.1562 7.58213 14.5 7.58213C13.8438 7.58213 13.2812 7.78178 12.8125 8.18109C12.3438 8.58039 12.1094 9.05956 12.1094 9.61859C12.1094 10.1776 12.3438 10.6568 12.8125 11.0561C13.2812 11.4554 13.8438 11.655 14.5 11.655Z" fill="white"/>
</g>
</svg>
