<svg width="30" height="29" viewBox="0 0 30 29" fill="none" xmlns="http://www.w3.org/2000/svg">
<ellipse cx="15" cy="14.5" rx="15" ry="14.5" fill="#FB6008"/>
<mask id="mask0_0_1" style="mask-type:alpha" maskUnits="userSpaceOnUse" x="4" y="4" width="22" height="20">
<rect x="4" y="4" width="22" height="20" fill="#D9D9D9"/>
</mask>
<g mask="url(#mask0_0_1)">
<path d="M7.66666 20.6668C7.16249 20.6668 6.7309 20.5036 6.37187 20.1772C6.01284 19.8509 5.83333 19.4585 5.83333 19.0002V9.00016C5.83333 8.54183 6.01284 8.14947 6.37187 7.82308C6.7309 7.49669 7.16249 7.3335 7.66666 7.3335H22.3333C22.8375 7.3335 23.2691 7.49669 23.6281 7.82308C23.9871 8.14947 24.1667 8.54183 24.1667 9.00016V19.0002C24.1667 19.4585 23.9871 19.8509 23.6281 20.1772C23.2691 20.5036 22.8375 20.6668 22.3333 20.6668H7.66666ZM15 14.8335L7.66666 10.6668V19.0002H22.3333V10.6668L15 14.8335ZM15 13.1668L22.3333 9.00016H7.66666L15 13.1668ZM7.66666 10.6668V9.00016V19.0002V10.6668Z" fill="white"/>
</g>
</svg>
