<svg width="30" height="29" viewBox="0 0 30 29" fill="none" xmlns="http://www.w3.org/2000/svg">
<ellipse cx="15" cy="14.5" rx="15" ry="14.5" fill="#FB6008"/>
<mask id="mask0_0_1" style="mask-type:alpha" maskUnits="userSpaceOnUse" x="3" y="6" width="22" height="18">
<rect x="3" y="6" width="22" height="17.9175" fill="#D9D9D9"/>
</mask>
<g mask="url(#mask0_0_1)">
<path d="M20.4167 14.9588C20.4167 13.503 19.7941 12.2681 18.549 11.254C17.3038 10.2399 15.7875 9.73287 14 9.73287V8.23975C15.1458 8.23975 16.2191 8.41705 17.2198 8.77167C18.2205 9.12629 19.0913 9.60533 19.8323 10.2088C20.5733 10.8123 21.1615 11.5215 21.5969 12.3365C22.0323 13.1515 22.25 14.0256 22.25 14.9588H20.4167ZM16.75 14.9588C16.75 14.3367 16.4826 13.8079 15.9479 13.3724C15.4132 12.9369 14.7639 12.7191 14 12.7191V11.226C15.2681 11.226 16.349 11.5899 17.2427 12.3178C18.1365 13.0457 18.5833 13.9261 18.5833 14.9588H16.75ZM21.2875 21.6779C19.3778 21.6779 17.491 21.3388 15.6271 20.6607C13.7632 19.9825 12.0674 19.0213 10.5396 17.7771C9.01181 16.5328 7.8316 15.1517 6.99896 13.6337C6.16632 12.1156 5.75 10.579 5.75 9.02364C5.75 8.79967 5.84167 8.61303 6.025 8.46371C6.20833 8.3144 6.4375 8.23975 6.7125 8.23975H10.425C10.6389 8.23975 10.8299 8.29885 10.9979 8.41705C11.166 8.53526 11.2653 8.67524 11.2958 8.837L11.8917 11.45C11.9222 11.649 11.9146 11.817 11.8688 11.9539C11.8229 12.0908 11.7389 12.209 11.6167 12.3085L9.39375 14.1376C9.69931 14.598 10.0622 15.0428 10.4823 15.4721C10.9024 15.9013 11.3646 16.3151 11.8688 16.7132C12.3424 17.0989 12.8389 17.4567 13.3583 17.7864C13.8778 18.1161 14.4278 18.4179 15.0083 18.6916L17.1625 16.9372C17.3 16.8252 17.4795 16.7412 17.701 16.6852C17.9226 16.6292 18.1403 16.6137 18.3542 16.6386L21.5167 17.1612C21.7306 17.2109 21.9062 17.3011 22.0438 17.4318C22.1812 17.5624 22.25 17.7086 22.25 17.8704V20.894C22.25 21.1179 22.1583 21.3046 21.975 21.4539C21.7917 21.6032 21.5625 21.6779 21.2875 21.6779ZM8.52292 12.7191L10.0354 11.4873L9.64583 9.73287H7.60625C7.68264 10.243 7.78958 10.7469 7.92708 11.2447C8.06458 11.7424 8.26319 12.2339 8.52292 12.7191ZM16.7271 19.4008C17.3229 19.6124 17.9302 19.7803 18.549 19.9048C19.1677 20.0292 19.7903 20.1101 20.4167 20.1474V18.505L18.2625 18.1504L16.7271 19.4008Z" fill="white"/>
</g>
</svg>
