<svg width="26" height="18" viewBox="0 0 26 18" fill="none" xmlns="http://www.w3.org/2000/svg">
<path d="M22.841 3.49227C23.8593 3.38982 24.8522 3.16037 25.7853 2.81195C25.1031 3.67201 24.2381 4.42569 23.2309 5.03739C23.2401 5.22013 23.245 5.40669 23.2453 5.59327C23.2541 11.2649 18.106 17.8115 8.67107 17.8262C5.77576 17.8306 3.07779 17.1238 0.805592 15.9118C1.20669 15.9503 1.61558 15.9697 2.02964 15.969C4.43172 15.9653 6.64315 15.2755 8.39657 14.121C6.15121 14.0913 4.25658 12.8524 3.60081 11.1492C3.91892 11.1999 4.24239 11.225 4.56655 11.2242C5.02352 11.2248 5.47839 11.1732 5.91788 11.0708C3.56935 10.6817 1.79843 8.94921 1.7952 6.86926L1.79512 6.81656C2.50559 7.14514 3.30346 7.32768 4.11991 7.34846C2.74267 6.58049 1.83543 5.26822 1.83312 3.77988C1.83006 3.02305 2.06796 2.27843 2.52351 1.61895C5.0588 4.21475 8.84009 5.91525 13.1034 6.08841C13.0149 5.77405 12.9701 5.44729 12.9696 5.11112C12.9659 2.7409 15.2593 0.815909 18.09 0.811515C19.5665 0.809223 20.9012 1.32778 21.8353 2.16018C22.9872 1.96907 24.0895 1.61542 25.0925 1.11515C24.7182 2.10316 23.9184 2.9475 22.841 3.49227Z" fill="white"/>
</svg>
