<svg width="28" height="29" viewBox="0 0 28 29" fill="none" xmlns="http://www.w3.org/2000/svg">
<g clip-path="url(#clip0_312_119)">
<path d="M14 0C21.74 0 28 6.43886 28 14.4C28 22.3611 21.74 28.8 14 28.8C6.26 28.8 0 22.3611 0 14.4C0 6.43886 6.26 0 14 0ZM11.44 21.9909C17.64 21.9909 21.04 16.704 21.04 12.1166V11.664C21.7 11.1703 22.28 10.5531 22.72 9.85371C22.12 10.1211 21.46 10.3063 20.78 10.4091C21.48 9.97714 22.02 9.29829 22.26 8.496C21.6 8.88686 20.88 9.17486 20.12 9.33943C19.5 8.66057 18.62 8.24914 17.66 8.24914C15.8 8.24914 14.28 9.81257 14.28 11.7257C14.28 11.9931 14.3 12.2606 14.38 12.5074C11.58 12.3634 9.08 10.9851 7.42 8.88686C7.14 9.40114 6.96 9.99771 6.96 10.6354C6.96 11.8286 7.56 12.8983 8.46 13.5154C7.9 13.5154 7.38 13.3509 6.94 13.0834V13.1246C6.94 14.8114 8.1 16.2103 9.64 16.5394C9.36 16.6217 9.06 16.6629 8.76 16.6629C8.54 16.6629 8.34 16.6423 8.12 16.6011C8.54 17.9794 9.8 18.9874 11.26 19.008C10.1 19.9337 8.64 20.4891 7.06 20.4891C6.78 20.4891 6.52 20.4891 6.26 20.448C7.74 21.4354 9.52 22.0114 11.42 22.0114" fill="#E15C12"/>
</g>
<defs>
<clipPath id="clip0_312_119">
<rect width="28" height="28.8" fill="white"/>
</clipPath>
</defs>
</svg>
