<svg width="27" height="22" viewBox="0 0 27 22" fill="none" xmlns="http://www.w3.org/2000/svg">
<ellipse cx="13.5" cy="11" rx="13.5" ry="11" fill="#FB6008"/>
<path d="M5.5 7.5C5.5 6.39543 6.39543 5.5 7.5 5.5H19.5C20.6046 5.5 21.5 6.39543 21.5 7.5V14.5C21.5 15.6046 20.6046 16.5 19.5 16.5H7.5C6.39543 16.5 5.5 15.6046 5.5 14.5V7.5Z" fill="#FFFEFE" fill-opacity="0.99"/>
<path d="M15.7683 10.2426C16.547 10.6059 16.5352 11.7173 15.7489 12.0639L12.1533 13.6491C11.4881 13.9423 10.7422 13.4504 10.7499 12.7235L10.7843 9.47728C10.792 8.75039 11.5482 8.27434 12.207 8.58161L15.7683 10.2426Z" fill="#FB6008"/>
</svg>
